<svg xmlns="http://www.w3.org/2000/svg" width="1000" height="1000" viewBox="0 0 1000 1000"><rect width="100%" height="100%" fill="#000000"/><path fill="#ffffff" d="m300.26 387.43 62.37 117.81h-27.87q-3.54 0-5.85-1.85t-3.7-4.62l-29.26-59.14q-4.93-10.01-7.55-18.17-1.23 4.47-3 8.86-1.77 4.38-3.93 9.31l-27.72 59.14q-1.23 2.77-3.69 4.62-2.47 1.85-6.32 1.85h-29.26l61.14-117.81zm263.65 64.68h27.41q8.78 17.71 14.32 37.65 5.55 19.94 5.55 39.5 0 18.17-4.47 33.42-4.46 15.24-12.7 26.33T574 606.34q-11.78 6.23-26.26 6.23-8.93 0-16.25-2-7.31-2-13.24-5.46-5.93-3.47-10.47-8.32-4.55-4.85-7.93-10.4-3.55 5.55-8.09 10.4t-10.47 8.32q-5.93 3.46-13.09 5.46t-15.94 2q-14.48 0-26.18-6.23-11.7-6.24-19.94-17.33t-12.71-26.33q-4.46-15.25-4.46-33.42 0-19.56 5.46-39.5 5.47-19.94 14.4-37.65h27.26q2 0 4.31.84 2.31.85 4.01 2.85 1.69 2 2.07 5.08.39 3.08-1.46 7.7-1.38 2.47-4.39 8.94-3 6.46-6 15.01-3.01 8.55-5.32 18.17-2.31 9.63-2.31 18.56 0 16.32 2.78 26.72 2.77 10.39 7.16 16.4t9.7 8.24 10.39 2.23q6.47 0 10.94-3.08 4.46-3.08 7.39-8.62 2.93-5.55 4.23-13.25 1.31-7.7 1.31-16.78V503.7h38.04v37.42h.16q0 9.08 1.3 16.78 1.31 7.7 4.24 13.25 2.93 5.54 7.39 8.62 4.47 3.08 10.94 3.08 5.08 0 10.39-2.23t9.7-8.24 7.16-16.4q2.78-10.4 2.78-26.72 0-8.93-2.31-18.56-2.31-9.62-5.32-18.17-3-8.55-5.93-15.01-2.92-6.47-4.31-8.94-1.85-4.62-1.46-7.7.38-3.08 2-5.08t4-2.85q2.39-.84 4.24-.84m159.24-64.68 62.37 117.81h-27.88q-3.54 0-5.85-1.85t-3.7-4.62l-29.26-59.14q-4.92-10.01-7.54-18.17-1.23 4.47-3.01 8.86-1.77 4.38-3.92 9.31l-27.72 59.14q-1.23 2.77-3.7 4.62-2.46 1.85-6.31 1.85h-29.26l61.14-117.81z"/></svg>