<svg xmlns="http://www.w3.org/2000/svg" width="512" height="512" viewBox="0 0 512 512"><rect width="100%" height="100%" fill="#000000"/><path fill="#FFFFFF" d="M125.31 238.36q4.85 0 8.82 1.58 3.98 1.57 6.8 4.46 2.83 2.89 4.36 7.05 1.53 4.17 1.53 9.31 0 5.19-1.53 9.35-1.53 4.17-4.36 7.1-2.82 2.93-6.8 4.5-3.97 1.58-8.82 1.58-4.88 0-8.88-1.58-3.99-1.57-6.82-4.5t-4.38-7.1q-1.55-4.16-1.55-9.35 0-5.14 1.55-9.31 1.55-4.16 4.38-7.05t6.82-4.46q4-1.58 8.88-1.58m0 36.85q5.44 0 8.06-3.65 2.61-3.66 2.61-10.71 0-7.06-2.61-10.75-2.62-3.7-8.06-3.7-5.52 0-8.18 3.72-2.65 3.71-2.65 10.73 0 7.01 2.65 10.69 2.66 3.67 8.18 3.67M161.86 256q0 8.76 2.13 17.21 2.12 8.46 6.08 15.9.42.85.48 1.51.07.66-.1 1.15t-.53.85-.79.61l-4.67 2.85q-3.15-4.84-5.36-9.73t-3.61-9.86q-1.4-4.98-2.06-10.07-.66-5.11-.66-10.42t.66-10.43 2.06-10.1q1.4-4.97 3.61-9.83 2.21-4.87 5.36-9.72l4.67 2.81q.43.25.79.62.36.36.53.85.17.48.1 1.14-.06.66-.48 1.55-3.96 7.4-6.08 15.88-2.13 8.48-2.13 17.23m39.02-34.81 17.21 32.52h-7.69q-.98 0-1.62-.51-.63-.51-1.02-1.28l-8.07-16.32q-1.36-2.76-2.08-5.01-.34 1.23-.83 2.44t-1.09 2.57l-7.65 16.32q-.34.77-1.02 1.28t-1.74.51h-8.07l16.87-32.52zm72.76 17.85h7.56q2.43 4.89 3.96 10.4 1.53 5.5 1.53 10.9 0 5.01-1.24 9.22-1.23 4.21-3.5 7.27-2.28 3.06-5.53 4.78t-7.24 1.72q-2.47 0-4.49-.55-2.02-.56-3.65-1.51-1.64-.96-2.89-2.3-1.26-1.34-2.19-2.87-.98 1.53-2.23 2.87-1.26 1.34-2.89 2.3-1.64.95-3.62 1.51-1.97.55-4.39.55-4 0-7.23-1.72t-5.5-4.78q-2.28-3.06-3.51-7.27t-1.23-9.22q0-5.4 1.51-10.9 1.51-5.51 3.97-10.4h7.52q.56 0 1.19.24.64.23 1.11.78.47.56.57 1.41.11.85-.4 2.12-.38.68-1.21 2.47-.83 1.78-1.66 4.14t-1.47 5.02q-.63 2.65-.63 5.12 0 4.5.76 7.37.77 2.87 1.98 4.53 1.21 1.65 2.67 2.27 1.47.62 2.87.62 1.79 0 3.02-.85t2.04-2.38 1.17-3.66q.36-2.12.36-4.63v-10.33h10.5v10.33h.04q0 2.51.36 4.63.36 2.13 1.17 3.66t2.04 2.38 3.02.85q1.4 0 2.87-.62 1.46-.62 2.67-2.27 1.22-1.66 1.98-4.53.77-2.87.77-7.37 0-2.47-.64-5.12-.64-2.66-1.47-5.02t-1.63-4.14q-.81-1.79-1.19-2.47-.51-1.27-.41-2.12.11-.85.55-1.41.45-.55 1.11-.78.66-.24 1.17-.24m43.94-17.85 17.22 32.52h-7.7q-.97 0-1.61-.51t-1.02-1.28l-8.08-16.32q-1.36-2.76-2.08-5.01-.34 1.23-.83 2.44t-1.08 2.57l-7.65 16.32q-.34.77-1.02 1.28t-1.74.51h-8.08l16.87-32.52zM350.1 256q0-8.75-2.11-17.23-2.1-8.48-6.05-15.88-.47-.89-.54-1.55-.06-.66.11-1.14.17-.49.53-.85.36-.37.83-.62l4.68-2.81q3.14 4.85 5.35 9.72 2.21 4.86 3.61 9.83 1.41 4.98 2.04 10.1.64 5.12.64 10.43t-.64 10.42q-.63 5.09-2.04 10.07-1.4 4.97-3.61 9.86t-5.35 9.73l-4.68-2.85q-.47-.25-.83-.61t-.53-.85-.11-1.15q.07-.66.54-1.51 3.95-7.44 6.05-15.9 2.11-8.45 2.11-17.21m36.72-17.64q4.84 0 8.81 1.58 3.98 1.57 6.8 4.46 2.83 2.89 4.36 7.05 1.53 4.17 1.53 9.31 0 5.19-1.53 9.35-1.53 4.17-4.36 7.1-2.82 2.93-6.8 4.5-3.97 1.58-8.81 1.58-4.89 0-8.89-1.58-3.99-1.57-6.82-4.5-2.82-2.93-4.38-7.1-1.55-4.16-1.55-9.35 0-5.14 1.55-9.31 1.56-4.16 4.38-7.05 2.83-2.89 6.82-4.46 4-1.58 8.89-1.58m0 36.85q5.44 0 8.05-3.65 2.61-3.66 2.61-10.71 0-7.06-2.61-10.75-2.61-3.7-8.05-3.7-5.53 0-8.19 3.72-2.65 3.71-2.65 10.73 0 7.01 2.65 10.69 2.66 3.67 8.19 3.67"/></svg>